# xmcd
#
# Track frame offsets:
#	150
#	27011
#	56139
#	82795
#	107801
#	133048
#	159604
#	183009
#	205078
#
# Disc length: 3041 seconds
#
# Revision: 0
# Processed by: cddbd v1.5.1PL0 Copyright (c) Steve Scherf et al.
# Submitted via: dBpowerAMP V4.0
#
DISCID=6b0bdf09
DTITLE=africa revenge - wanga
DYEAR=2004
DGENRE=Blues
TTITLE0=memo
TTITLE1=anochengeta
TTITLE2=wanga
TTITLE3=thembalam'
TTITLE4=buwe-buwe
TTITLE5=shiyananam'
TTITLE6=mhoro
TTITLE7=#4
TTITLE8=maweni
EXTD=
EXTT0=
EXTT1=
EXTT2=
EXTT3=
EXTT4=
EXTT5=
EXTT6=
EXTT7=
EXTT8=
PLAYORDER=
